# xmcd CD database file
#
# Track frame offsets:
#	150
#	16002
#	36270
#	58060
#	75155
#	94027
#	115980
#	133010
#	147710
#	169690
#	191220
#	211795
#
# Disc length: 3025 seconds
#
# Revision: 0
# Processed by: cddbd v1.4PL0 Copyright (c) Steve Scherf et al.
# Submitted via: CDex 1.51
#
DISCID=a10bcf0c
DTITLE=Ruud Hermans - Little Tear, BIG SMILE
DYEAR=1900
DGENRE=Country
TTITLE0=Blue Horizon
TTITLE1=Keep Asking Myself
TTITLE2=Little Tear, BIG SMILE
TTITLE3=Then There's You
TTITLE4=Fate Of Love
TTITLE5=She's My Girl
TTITLE6=Rhinestone Cowboy
TTITLE7=The Angels Rejoiced Last Night
TTITLE8=100 Miles
TTITLE9=Where I Used To Have A Heart
TTITLE10=Where I Belong
TTITLE11=Give Me Wings
EXTD=
EXTT0=
EXTT1=
EXTT2=
EXTT3=
EXTT4=
EXTT5=
EXTT6=
EXTT7=
EXTT8=
EXTT9=
EXTT10=
EXTT11=
PLAYORDER=
